<mxfile host="app.diagrams.net" agent="Mozilla/5.0 (X11; CrOS x86_64 14541.0.0) AppleWebKit/537.36 (KHTML, like Gecko) Chrome/138.0.0.0 Safari/537.36" version="28.1.2">
  <diagram name="Page-1" id="XdPOrdpwbq4Fod4EkIGs">
    <mxGraphModel dx="806" dy="462" grid="1" gridSize="10" guides="1" tooltips="1" connect="1" arrows="1" fold="1" page="1" pageScale="1" pageWidth="827" pageHeight="1169" math="0" shadow="0">
      <root>
        <mxCell id="0" />
        <mxCell id="1" parent="0" />
        <mxCell id="AQcgWvWJa2k0AfsB1GDL-13" style="edgeStyle=orthogonalEdgeStyle;rounded=0;orthogonalLoop=1;jettySize=auto;html=1;exitX=0.5;exitY=0;exitDx=0;exitDy=0;entryX=0.5;entryY=1;entryDx=0;entryDy=0;" edge="1" parent="1" source="AQcgWvWJa2k0AfsB1GDL-1" target="AQcgWvWJa2k0AfsB1GDL-2">
          <mxGeometry relative="1" as="geometry" />
        </mxCell>
        <mxCell id="AQcgWvWJa2k0AfsB1GDL-1" value="server" style="rounded=0;whiteSpace=wrap;html=1;" vertex="1" parent="1">
          <mxGeometry x="350" y="210" width="120" height="60" as="geometry" />
        </mxCell>
        <mxCell id="AQcgWvWJa2k0AfsB1GDL-2" value="CardHandler&lt;div&gt;(Server)&lt;/div&gt;" style="shape=module;align=left;spacingLeft=20;align=center;verticalAlign=top;whiteSpace=wrap;html=1;" vertex="1" parent="1">
          <mxGeometry x="360" y="90" width="100" height="50" as="geometry" />
        </mxCell>
        <mxCell id="AQcgWvWJa2k0AfsB1GDL-26" style="edgeStyle=orthogonalEdgeStyle;rounded=0;orthogonalLoop=1;jettySize=auto;html=1;exitX=0.5;exitY=1;exitDx=0;exitDy=0;entryX=0.5;entryY=0;entryDx=0;entryDy=0;" edge="1" parent="1" source="AQcgWvWJa2k0AfsB1GDL-6" target="AQcgWvWJa2k0AfsB1GDL-25">
          <mxGeometry relative="1" as="geometry" />
        </mxCell>
        <mxCell id="AQcgWvWJa2k0AfsB1GDL-6" value="CardHandler&lt;div&gt;(Client)&lt;/div&gt;" style="shape=module;align=left;spacingLeft=20;align=center;verticalAlign=top;whiteSpace=wrap;html=1;" vertex="1" parent="1">
          <mxGeometry x="250" y="420" width="100" height="50" as="geometry" />
        </mxCell>
        <mxCell id="AQcgWvWJa2k0AfsB1GDL-14" style="edgeStyle=orthogonalEdgeStyle;rounded=0;orthogonalLoop=1;jettySize=auto;html=1;exitX=0.5;exitY=1;exitDx=0;exitDy=0;entryX=0.5;entryY=0;entryDx=0;entryDy=0;" edge="1" parent="1" source="AQcgWvWJa2k0AfsB1GDL-8" target="AQcgWvWJa2k0AfsB1GDL-6">
          <mxGeometry relative="1" as="geometry" />
        </mxCell>
        <mxCell id="AQcgWvWJa2k0AfsB1GDL-8" value="Client" style="rounded=0;whiteSpace=wrap;html=1;" vertex="1" parent="1">
          <mxGeometry x="350" y="310" width="120" height="60" as="geometry" />
        </mxCell>
        <mxCell id="AQcgWvWJa2k0AfsB1GDL-10" value="ProfileHander&lt;div&gt;(Client)&lt;/div&gt;" style="shape=module;align=left;spacingLeft=20;align=center;verticalAlign=top;whiteSpace=wrap;html=1;" vertex="1" parent="1">
          <mxGeometry x="470" y="420" width="100" height="50" as="geometry" />
        </mxCell>
        <mxCell id="AQcgWvWJa2k0AfsB1GDL-15" style="edgeStyle=orthogonalEdgeStyle;rounded=0;orthogonalLoop=1;jettySize=auto;html=1;exitX=0.5;exitY=1;exitDx=0;exitDy=0;entryX=0.577;entryY=-0.001;entryDx=0;entryDy=0;entryPerimeter=0;" edge="1" parent="1" source="AQcgWvWJa2k0AfsB1GDL-8" target="AQcgWvWJa2k0AfsB1GDL-10">
          <mxGeometry relative="1" as="geometry" />
        </mxCell>
        <mxCell id="AQcgWvWJa2k0AfsB1GDL-24" style="edgeStyle=orthogonalEdgeStyle;rounded=0;orthogonalLoop=1;jettySize=auto;html=1;exitX=1;exitY=0.5;exitDx=0;exitDy=0;entryX=0;entryY=0.5;entryDx=0;entryDy=0;" edge="1" parent="1" source="AQcgWvWJa2k0AfsB1GDL-17" target="AQcgWvWJa2k0AfsB1GDL-21">
          <mxGeometry relative="1" as="geometry" />
        </mxCell>
        <mxCell id="AQcgWvWJa2k0AfsB1GDL-17" value="Card&lt;div&gt;Properties&lt;/div&gt;" style="shape=module;align=left;spacingLeft=20;align=center;verticalAlign=top;whiteSpace=wrap;html=1;" vertex="1" parent="1">
          <mxGeometry x="10" y="265" width="100" height="50" as="geometry" />
        </mxCell>
        <mxCell id="AQcgWvWJa2k0AfsB1GDL-22" style="edgeStyle=orthogonalEdgeStyle;rounded=0;orthogonalLoop=1;jettySize=auto;html=1;exitX=1;exitY=0.5;exitDx=0;exitDy=0;entryX=0;entryY=0.5;entryDx=0;entryDy=0;" edge="1" parent="1" source="AQcgWvWJa2k0AfsB1GDL-21" target="AQcgWvWJa2k0AfsB1GDL-1">
          <mxGeometry relative="1" as="geometry" />
        </mxCell>
        <mxCell id="AQcgWvWJa2k0AfsB1GDL-23" style="edgeStyle=orthogonalEdgeStyle;rounded=0;orthogonalLoop=1;jettySize=auto;html=1;exitX=1;exitY=0.5;exitDx=0;exitDy=0;entryX=0;entryY=0.5;entryDx=0;entryDy=0;" edge="1" parent="1" source="AQcgWvWJa2k0AfsB1GDL-21" target="AQcgWvWJa2k0AfsB1GDL-8">
          <mxGeometry relative="1" as="geometry" />
        </mxCell>
        <mxCell id="AQcgWvWJa2k0AfsB1GDL-21" value="Shared" style="rounded=0;whiteSpace=wrap;html=1;" vertex="1" parent="1">
          <mxGeometry x="190" y="260" width="110" height="60" as="geometry" />
        </mxCell>
        <mxCell id="AQcgWvWJa2k0AfsB1GDL-25" value="&lt;div&gt;&lt;br&gt;&lt;/div&gt;HandHandler" style="shape=module;align=left;spacingLeft=20;align=center;verticalAlign=top;whiteSpace=wrap;html=1;" vertex="1" parent="1">
          <mxGeometry x="170" y="520" width="100" height="50" as="geometry" />
        </mxCell>
      </root>
    </mxGraphModel>
  </diagram>
</mxfile>
